<?xml version="1.0" encoding="utf-8"?><svg xmlns="http://www.w3.org/2000/svg" xmlns:xlink="http://www.w3.org/1999/xlink" width="1240" height="955" preserveAspectRatio="xMidYMid" viewBox="0 0 1240 955" style="z-index:1;margin-right:-2px;display:block;background-color:rgb(255, 255, 255);animation-play-state:paused" ><g transform="translate(620,477.5) scale(1,1) translate(-620,-477.5)" style="animation-play-state:paused" ><linearGradient id="lg-0.4076671324492589" x1="0" x2="1" y1="0" y2="0" style="animation-play-state:paused" ><stop stop-color="#ff00ff" offset="0" style="animation-play-state:paused" ></stop>

  
<stop stop-color="#00ffff" offset="1" style="animation-play-state:paused" ></stop></linearGradient>
<path d="M0 0L0 783.3807983398438Q155 803.1428833007812 310 771.4482421875T620 601.1509399414062T930 535.385009765625T1240 304.56219482421875L1240 0Z" fill="url(#lg-0.4076671324492589)" opacity="0.4" style="opacity:0.4000000059604645;animation-play-state:paused" ></path>
<path d="M0 0L0 855.4493408203125Q155 729.5304565429688 310 700.726806640625T620 683.54443359375T930 504.88934326171875T1240 375.916748046875L1240 0Z" fill="url(#lg-0.4076671324492589)" opacity="0.4" style="opacity:0.4000000059604645;animation-play-state:paused" ></path>
<path d="M0 0L0 935.0512084960938Q155 699.104248046875 310 677.4638061523438T620 560.6116943359375T930 437.101318359375T1240 439.8041687011719L1240 0Z" fill="url(#lg-0.4076671324492589)" opacity="0.4" style="opacity:0.4000000059604645;animation-play-state:paused" ></path>
<path d="M0 0L0 884.8959350585938Q155 780.62939453125 310 744.2315673828125T620 554.6277465820312T930 502.7692565917969T1240 349.8904724121094L1240 0Z" fill="url(#lg-0.4076671324492589)" opacity="0.4" style="opacity:0.4000000059604645;animation-play-state:paused" ></path>
<path d="M0 0L0 820.3645629882812Q155 788.9451293945312 310 744.06982421875T620 614.1732788085938T930 546.6403198242188T1240 435.734619140625L1240 0Z" fill="url(#lg-0.4076671324492589)" opacity="0.4" style="opacity:0.4000000059604645;animation-play-state:paused" ></path></g></svg>